<svg width="17" height="16" viewBox="0 0 17 16" fill="none" xmlns="http://www.w3.org/2000/svg">
<g clip-path="url(#clip0_1159_6857)">
<path d="M5.8335 2H1.8335V12H6.50016C7.0306 12 7.5393 12.2107 7.91438 12.5858C8.28945 12.9609 8.50016 13.4696 8.50016 14V4.66667C8.50016 3.95942 8.21921 3.28115 7.71911 2.78105C7.21902 2.28095 6.54074 2 5.8335 2Z" stroke="white" stroke-width="2" stroke-linecap="round" stroke-linejoin="round"/>
<path d="M5.8335 2H1.8335V12H6.50016C7.0306 12 7.5393 12.2107 7.91438 12.5858C8.28945 12.9609 8.50016 13.4696 8.50016 14V4.66667C8.50016 3.95942 8.21921 3.28115 7.71911 2.78105C7.21902 2.28095 6.54074 2 5.8335 2Z" stroke="white" stroke-width="2" stroke-linecap="round" stroke-linejoin="round"/>
<path d="M11.1667 2H15.1667V12H10.5C9.96957 12 9.46086 12.2107 9.08579 12.5858C8.71071 12.9609 8.5 13.4696 8.5 14V4.66667C8.5 3.95942 8.78095 3.28115 9.28105 2.78105C9.78115 2.28095 10.4594 2 11.1667 2Z" stroke="white" stroke-width="2" stroke-linecap="round" stroke-linejoin="round"/>
</g>
<defs>
<clipPath id="clip0_1159_6857">
<rect width="16" height="16" fill="white" transform="translate(0.5)"/>
</clipPath>
</defs>
</svg>
