<svg width="192" height="56" viewBox="0 0 192 56" fill="none" xmlns="http://www.w3.org/2000/svg">
<path d="M20.96 43.36C8.48 43.36 0.92 34.9 0.92 22C0.92 9.1 8.78 0.639998 21.5 0.639998C31.46 0.639998 38.48 6.88 39.56 16H30.44C29.36 11.32 26 8.26 21.02 8.26C14.18 8.26 10.1 13.9 10.1 22C10.1 30.04 14.12 35.74 20.9 35.74C26 35.74 29.36 32.68 30.44 28H39.5C38.48 37.12 31.22 43.36 20.96 43.36ZM58.8717 43.36C48.6117 43.36 42.4317 37.18 42.4317 27.64C42.4317 18.04 48.7317 11.8 58.2717 11.8C67.5117 11.8 73.7517 17.56 73.8717 26.62C73.8717 27.52 73.8117 28.54 73.6317 29.5H51.2517V29.92C51.4317 34.3 54.2517 36.94 58.5117 36.94C61.9317 36.94 64.3317 35.44 65.0517 32.56H73.3917C72.4317 38.56 67.0917 43.36 58.8717 43.36ZM51.4317 23.98H65.3517C64.7517 20.2 62.1717 18.1 58.3317 18.1C54.6717 18.1 51.9117 20.32 51.4317 23.98ZM95.515 12.16H96.955V19.84H93.595C88.555 19.84 86.635 23.2 86.635 27.88V43H78.175V12.16H85.855L86.635 16.78C88.315 14.02 90.715 12.16 95.515 12.16ZM103.981 34.18V19.3H98.8813V12.16H103.981V3.52H112.441V12.16H119.521V19.3H112.441V32.8C112.441 34.96 113.281 35.86 115.501 35.86H119.701V43H112.801C106.921 43 103.981 40.06 103.981 34.18Z" fill="white"/>
<path d="M145.977 16.42L146.697 12.16H154.137V42.1C154.137 49.72 149.457 55.36 137.637 55.36C129.057 55.36 123.177 51.46 122.757 44.32H131.277C132.057 47.26 134.397 48.94 138.297 48.94C143.037 48.94 145.857 46.6 145.857 41.8V38.56C143.817 41.14 140.757 42.82 136.437 42.82C128.157 42.88 122.097 36.82 122.097 27.28C122.097 17.86 128.157 11.74 136.377 11.74C140.817 11.74 143.937 13.72 145.977 16.42ZM138.297 36.04C142.917 36.04 145.797 32.5 145.797 27.4C145.797 22.24 142.917 18.58 138.297 18.58C133.677 18.58 130.737 22.18 130.737 27.34C130.737 32.5 133.677 36.04 138.297 36.04ZM174.775 43.36C164.935 43.36 158.515 37.06 158.515 27.58C158.515 18.1 164.935 11.8 174.775 11.8C184.615 11.8 191.035 18.1 191.035 27.58C191.035 37.12 184.615 43.36 174.775 43.36ZM174.775 36.46C179.515 36.46 182.455 32.8 182.455 27.58C182.455 22.36 179.515 18.7 174.775 18.7C170.035 18.7 167.155 22.36 167.155 27.58C167.155 32.8 170.035 36.46 174.775 36.46Z" fill="#9228B7"/>
</svg>
