<svg width="60" height="68" viewBox="0 0 60 68" fill="none" xmlns="http://www.w3.org/2000/svg">
<path d="M0.648926 0.666016L5.99116 60.6471L29.9649 67.3327L54.0046 60.6222L59.3511 0.666016H0.648926ZM48.2534 14.4085L46.4743 34.3908L46.4808 34.4986L46.4723 34.7457V34.7435L45.2082 48.7146L45.0689 49.9558L30 54.1233V54.1254L29.9878 54.1359L14.9456 49.943L13.9265 38.3924H21.3031L21.8262 44.2666L30.0021 46.4813L30 46.485L38.2047 44.2373L39.0723 34.6729H21.9197L21.7725 33.056L21.436 29.268L21.2619 27.2339H39.7245L40.3966 19.7949H12.2744L12.1267 18.18L11.7925 14.39L11.6161 12.356H48.4296L48.2534 14.4085Z" fill="white"/>
</svg>
