<svg width="68" height="66" viewBox="0 0 68 66" fill="none" xmlns="http://www.w3.org/2000/svg">
<path d="M34 0.488281C26.085 0.488609 18.4283 3.30533 12.3999 8.43444C6.37161 13.5636 2.36505 20.6704 1.09716 28.4832C-0.170732 36.2961 1.38278 44.3052 5.47971 51.0775C9.57665 57.8497 15.9497 62.9432 23.4584 65.4466C25.1251 65.7383 25.7501 64.7383 25.7501 63.8632C25.7501 63.0716 25.7084 60.4466 25.7084 57.6549C17.3334 59.1966 15.1667 55.6134 14.5 53.7384C13.7603 51.9148 12.5876 50.2988 11.0834 49.0299C9.91672 48.4049 8.25005 46.8633 11.0417 46.8217C12.1076 46.9374 13.13 47.3083 14.0222 47.903C14.9143 48.4978 15.6499 49.2988 16.1667 50.2383C16.6226 51.0573 17.2356 51.7782 17.9707 52.3599C18.7057 52.9416 19.5483 53.3725 20.4502 53.628C21.352 53.8834 22.2954 53.9584 23.2263 53.8486C24.1572 53.7389 25.0573 53.4465 25.875 52.9883C26.0193 51.2937 26.7745 49.7093 28 48.53C20.5834 47.6967 12.8334 44.8216 12.8334 32.0717C12.7865 28.7589 14.009 25.5536 16.2501 23.1134C15.231 20.2341 15.3502 17.0743 16.5834 14.28C16.5834 14.28 19.3749 13.405 25.75 17.6967C31.2043 16.1966 36.9624 16.1966 42.4167 17.6967C48.7916 13.3634 51.5834 14.28 51.5834 14.28C52.8167 17.0743 52.9359 20.2341 51.9167 23.1134C54.1645 25.5495 55.388 28.7575 55.3334 32.0717C55.3334 44.8633 47.5416 47.6967 40.125 48.53C40.9206 49.3363 41.5332 50.3044 41.9215 51.3684C42.3097 52.4325 42.4644 53.5676 42.375 54.6967C42.375 59.1551 42.3334 62.7383 42.3334 63.8634C42.3334 64.7384 42.9584 65.7801 44.625 65.4467C52.1206 62.9229 58.4753 57.8175 62.5548 51.0418C66.6342 44.266 68.173 36.261 66.8963 28.4557C65.6196 20.6504 61.6106 13.5529 55.5849 8.42998C49.5592 3.30712 41.9091 0.492398 34 0.488281Z" fill="white"/>
</svg>
