<svg width="106" height="106" viewBox="0 0 106 106" fill="none" xmlns="http://www.w3.org/2000/svg">
<rect opacity="0.14" width="106" height="106" rx="30" fill="white"/>
<path d="M42.4375 51.375C47.3735 51.375 51.375 47.3735 51.375 42.4375C51.375 37.5015 47.3735 33.5 42.4375 33.5C37.5015 33.5 33.5 37.5015 33.5 42.4375C33.5 47.3735 37.5015 51.375 42.4375 51.375Z" fill="white"/>
<path d="M63.5625 51.375C68.4985 51.375 72.5 47.3735 72.5 42.4375C72.5 37.5015 68.4985 33.5 63.5625 33.5C58.6265 33.5 54.625 37.5015 54.625 42.4375C54.625 47.3735 58.6265 51.375 63.5625 51.375Z" fill="white"/>
<path d="M42.4375 72.5C47.3735 72.5 51.375 68.4985 51.375 63.5625C51.375 58.6265 47.3735 54.625 42.4375 54.625C37.5015 54.625 33.5 58.6265 33.5 63.5625C33.5 68.4985 37.5015 72.5 42.4375 72.5Z" fill="white"/>
<path d="M69.25 61.9375H65.1875V57.875C65.1875 57.444 65.0163 57.0307 64.7115 56.726C64.4068 56.4212 63.9935 56.25 63.5625 56.25C63.1315 56.25 62.7182 56.4212 62.4135 56.726C62.1087 57.0307 61.9375 57.444 61.9375 57.875V61.9375H57.875C57.444 61.9375 57.0307 62.1087 56.726 62.4135C56.4212 62.7182 56.25 63.1315 56.25 63.5625C56.25 63.9935 56.4212 64.4068 56.726 64.7115C57.0307 65.0163 57.444 65.1875 57.875 65.1875H61.9375V69.25C61.9375 69.681 62.1087 70.0943 62.4135 70.399C62.7182 70.7038 63.1315 70.875 63.5625 70.875C63.9935 70.875 64.4068 70.7038 64.7115 70.399C65.0163 70.0943 65.1875 69.681 65.1875 69.25V65.1875H69.25C69.681 65.1875 70.0943 65.0163 70.399 64.7115C70.7038 64.4068 70.875 63.9935 70.875 63.5625C70.875 63.1315 70.7038 62.7182 70.399 62.4135C70.0943 62.1087 69.681 61.9375 69.25 61.9375Z" fill="white"/>
</svg>
