<svg width="106" height="106" viewBox="0 0 106 106" fill="none" xmlns="http://www.w3.org/2000/svg">
<rect opacity="0.14" width="106" height="106" rx="30" fill="white"/>
<g clip-path="url(#clip0_1668_15677)">
<path d="M75.5 73.24C75.5 74.2135 74.6956 75 73.7 75H32.3C31.3044 75 30.5 74.2135 30.5 73.24V50.14H75.5V73.24ZM32.3 34.96H41.75V31.44C41.75 31.198 41.9525 31 42.2 31H45.35C45.5975 31 45.8 31.198 45.8 31.44V34.96H60.2V31.44C60.2 31.198 60.4025 31 60.65 31H63.8C64.0475 31 64.25 31.198 64.25 31.44V34.96H73.7C74.6956 34.96 75.5 35.7465 75.5 36.72V46.4H30.5V36.72C30.5 35.7465 31.3044 34.96 32.3 34.96Z" fill="white"/>
</g>
<defs>
<clipPath id="clip0_1668_15677">
<rect width="45" height="44" fill="white" transform="matrix(-1 0 0 1 75.5 31)"/>
</clipPath>
</defs>
</svg>
