<svg width="106" height="106" viewBox="0 0 106 106" fill="none" xmlns="http://www.w3.org/2000/svg">
<rect opacity="0.14" width="106" height="106" rx="30" fill="white"/>
<path fill-rule="evenodd" clip-rule="evenodd" d="M48.7693 54.7009L41.0509 52.1281C36.3444 50.5592 33.9912 49.7748 33.9912 48.3333C33.9912 46.8918 36.3444 46.1074 41.0508 44.5386L41.0509 44.5386L64.0772 36.8631C67.3888 35.7593 69.0446 35.2074 69.9186 36.0814C70.7926 36.9554 70.2407 38.6112 69.1368 41.9228L61.4614 64.9491C59.8926 69.6555 59.1082 72.0088 57.6667 72.0088C56.2251 72.0088 55.4407 69.6555 53.8719 64.9491L51.2991 57.2307L51.2991 57.2307L51.2991 57.2306C51.1891 56.9007 51.0986 56.6293 51.0128 56.4014L60.7071 46.7071C61.0976 46.3166 61.0976 45.6834 60.7071 45.2929C60.3166 44.9024 59.6834 44.9024 59.2929 45.2929L49.5986 54.9872C49.3707 54.9013 49.0992 54.8108 48.7693 54.7009Z" fill="white"/>
</svg>
