<svg width="17" height="16" viewBox="0 0 17 16" fill="none" xmlns="http://www.w3.org/2000/svg">
<g id="Icon Right" clip-path="url(#clip0_2255_984)">
<g id="Vector">
<path d="M14.5067 7.47992V10.4733C14.5067 13.4666 13.3133 14.6666 10.3133 14.6666H6.72001C6.33334 14.6666 5.98001 14.6466 5.65334 14.5999M2.52667 10.3466V7.47992M8.52001 7.99992C9.74001 7.99992 10.64 7.00659 10.52 5.78659L10.0733 1.33325H6.96001L6.51334 5.78659C6.39334 7.00659 7.30001 7.99992 8.52001 7.99992Z" stroke="white" stroke-width="1.5" stroke-linecap="round" stroke-linejoin="round"/>
<path d="M14.5067 7.47992V10.4733C14.5067 13.4666 13.3133 14.6666 10.3133 14.6666H6.72001C6.33334 14.6666 5.98001 14.6466 5.65334 14.5999M2.52667 10.3466V7.47992M8.52001 7.99992C9.74001 7.99992 10.64 7.00659 10.52 5.78659L10.0733 1.33325H6.96001L6.51334 5.78659C6.39334 7.00659 7.30001 7.99992 8.52001 7.99992Z" stroke="white" stroke-width="1.5" stroke-linecap="round" stroke-linejoin="round"/>
</g>
<path id="Vector_2" d="M12.72 7.99992C14.0667 7.99992 15.0533 6.90659 14.92 5.56659L14.7333 3.73325C14.4933 1.99992 13.8267 1.33325 12.08 1.33325H10.0467L10.5133 6.00659C10.6333 7.10659 11.62 7.99992 12.72 7.99992ZM4.28001 7.99992C5.38001 7.99992 6.37334 7.10659 6.48001 6.00659L6.62667 4.53325L6.94667 1.33325H4.91334C3.16667 1.33325 2.50001 1.99992 2.26001 3.73325L2.07334 5.56659C1.94001 6.90659 2.93334 7.99992 4.28001 7.99992Z" stroke="white" stroke-width="1.5" stroke-linecap="round" stroke-linejoin="round"/>
<path id="Vector_3" d="M4.82669 12.6533H2.84002M3.83335 11.68V13.6733M6.50002 12.6667C6.50002 13.1667 6.36002 13.64 6.11335 14.04C5.98669 14.2533 5.83335 14.4467 5.65335 14.6C5.63335 14.6267 5.61335 14.6467 5.58669 14.6667C5.12002 15.0867 4.50669 15.3333 3.83335 15.3333C3.02002 15.3333 2.29335 14.9667 1.81335 14.3933C1.80002 14.3733 1.78002 14.36 1.76669 14.34C1.68669 14.2467 1.61335 14.1467 1.55335 14.04C1.30669 13.64 1.16669 13.1667 1.16669 12.6667C1.16669 11.8267 1.55335 11.0733 2.16669 10.5867C2.28002 10.4933 2.40002 10.4133 2.52669 10.3467C2.91335 10.1267 3.36002 10 3.83335 10C4.50002 10 5.10002 10.24 5.56669 10.6467C5.64669 10.7067 5.72002 10.78 5.78669 10.8533C6.22669 11.3333 6.50002 11.9667 6.50002 12.6667Z" stroke="white" stroke-width="1.5" stroke-miterlimit="10" stroke-linecap="round" stroke-linejoin="round"/>
</g>
<defs>
<clipPath id="clip0_2255_984">
<rect width="16" height="16" fill="white" transform="translate(0.5)"/>
</clipPath>
</defs>
</svg>
