<svg width="62" height="68" viewBox="0 0 62 68" fill="none" xmlns="http://www.w3.org/2000/svg">
<path d="M39.26 43.609C36.7535 43.8533 34.2286 43.3935 31.9692 42.2815C31.4573 41.872 31.0349 41.3619 30.7279 40.7827C30.4209 40.2036 30.2359 39.5676 30.1843 38.9142C30.1832 38.8164 30.1628 38.7198 30.1242 38.63C30.0855 38.5401 30.0295 38.4589 29.9592 38.3908C29.889 38.3228 29.8059 38.2694 29.7149 38.2337C29.6238 38.198 29.5266 38.1807 29.4289 38.1828C28.3736 38.17 27.3185 38.1728 26.2634 38.1814C26.079 38.1625 25.8946 38.2172 25.7502 38.3334C25.6058 38.4497 25.5131 38.6181 25.4921 38.8023C25.4319 39.9487 25.6257 41.0943 26.0596 42.1572C26.4936 43.2201 27.1569 44.174 28.0023 44.9508C30.1362 46.616 32.7274 47.5907 35.4298 47.7448C38.2456 48.0714 41.0954 47.9504 43.8734 47.3863C46.0065 46.9883 47.9622 45.9344 49.4675 44.3715C50.2997 43.3455 50.8574 42.1248 51.0883 40.8241C51.3192 39.5234 51.2157 38.1854 50.7875 36.9356C50.4279 36.0547 49.8713 35.2678 49.1603 34.6353C48.4494 34.0029 47.603 33.5417 46.6862 33.2872C42.417 31.7892 37.8052 31.9025 33.4529 30.7642C32.6973 30.5263 31.774 30.2682 31.4373 29.4682C31.2426 28.9053 31.2293 28.2955 31.3993 27.7246C31.5692 27.1537 31.9138 26.6505 32.3846 26.2856C33.7511 25.5046 35.3072 25.1172 36.8804 25.1662C39.0155 24.9652 41.1678 25.2732 43.1609 26.0649C43.7597 26.417 44.2746 26.8952 44.6699 27.4663C45.0652 28.0374 45.3315 28.6878 45.4502 29.3722C45.4559 29.5741 45.5368 29.7667 45.6772 29.912C45.8176 30.0573 46.0072 30.1449 46.2088 30.1577C47.2566 30.179 48.3048 30.1634 49.3525 30.1648C49.5342 30.1865 49.7177 30.1419 49.8691 30.0392C50.0206 29.9365 50.1299 29.7826 50.1769 29.6057C50.1862 28.1924 49.8262 26.8012 49.1324 25.5699C48.4386 24.3386 47.4351 23.3099 46.2214 22.5857C42.8715 21.0397 39.1531 20.4707 35.4941 20.9443V20.944C32.8132 21.0539 30.2519 22.0831 28.2403 23.8586C27.3167 24.854 26.6914 26.0887 26.4354 27.4222C26.1794 28.7556 26.3031 30.1342 26.7923 31.4008C27.1732 32.2492 27.7335 33.005 28.4346 33.616C29.1357 34.227 29.961 34.6787 30.8536 34.94C35.1086 36.4769 39.7721 35.9837 44.0683 37.3427C44.9055 37.6268 45.8805 38.0611 46.137 38.9929C46.2748 39.5514 46.2644 40.1361 46.1067 40.6893C45.9491 41.2425 45.6497 41.7449 45.2382 42.1468C43.4513 43.2568 41.3574 43.7689 39.26 43.609ZM58.6564 15.4578C50.3489 10.76 42.0395 6.06644 33.7282 1.37715C32.8943 0.910849 31.9548 0.666016 30.9993 0.666016C30.0439 0.666016 29.1044 0.910849 28.2704 1.37715C19.9915 6.05227 11.7121 10.7272 3.43225 15.4018C2.62677 15.8409 1.95343 16.4874 1.48206 17.2744C1.0107 18.0614 0.758486 18.9602 0.751587 19.8775V48.125C0.764844 49.059 1.03064 49.972 1.52078 50.7672C2.01092 51.5624 2.70714 52.2101 3.53559 52.6417C5.91395 53.9362 8.22472 55.3626 10.6462 56.5711C12.0438 57.3183 13.5961 57.7299 15.1803 57.7734C16.7645 57.817 18.3371 57.4912 19.7736 56.822C20.8485 56.1486 21.7231 55.1993 22.3064 54.073C22.8896 52.9467 23.1601 51.6846 23.0897 50.4182C23.1082 41.0959 23.0925 31.7731 23.0968 22.4506C23.113 22.3487 23.1075 22.2445 23.0806 22.1448C23.0538 22.0452 23.0062 21.9523 22.941 21.8723C22.8758 21.7924 22.7944 21.7271 22.7021 21.6807C22.6099 21.6344 22.509 21.6081 22.4059 21.6035C21.3479 21.5864 20.2883 21.5935 19.2304 21.6006C19.1324 21.5918 19.0337 21.6038 18.9407 21.6359C18.8477 21.6679 18.7626 21.7192 18.6908 21.7865C18.6191 21.8537 18.5623 21.9354 18.5243 22.0261C18.4863 22.1168 18.468 22.2146 18.4704 22.3129C18.4562 31.5754 18.4733 40.8405 18.4619 50.1044C18.4643 50.7439 18.2711 51.3688 17.9083 51.8953C17.5454 52.4218 17.0303 52.8248 16.4319 53.0502C15.7428 53.2539 15.0185 53.3099 14.3063 53.2146C13.5941 53.1192 12.91 52.8747 12.2988 52.497C10.0954 51.2526 7.89204 50.0083 5.68875 48.7641C5.54276 48.6949 5.42148 48.5826 5.34123 48.4424C5.26099 48.3022 5.22565 48.1407 5.23995 47.9798C5.23995 38.6602 5.23995 29.341 5.23995 20.0223C5.22463 19.841 5.26699 19.6595 5.36098 19.5037C5.45496 19.348 5.59577 19.2259 5.76329 19.1549C14.0151 14.5074 22.2653 9.85502 30.514 5.19775C30.6572 5.09991 30.8267 5.04769 31.0002 5.04795C31.1737 5.0482 31.3431 5.10092 31.4861 5.19919C39.7376 9.84817 47.9887 14.4988 56.2395 19.151C56.4062 19.2239 56.546 19.3471 56.6393 19.5033C56.7326 19.6595 56.7747 19.841 56.7599 20.0224C56.7585 29.3403 56.7575 38.6591 56.7571 47.9785C56.7716 48.1401 56.7372 48.3024 56.6581 48.4441C56.579 48.5858 56.4591 48.7003 56.3139 48.7728C48.1885 53.3673 40.0588 57.9552 31.9247 62.5364C31.5361 62.7529 31.0761 63.1012 30.6216 62.839C28.4913 61.6331 26.387 60.3805 24.2638 59.1632C24.1552 59.0802 24.0244 59.0315 23.888 59.0233C23.7516 59.0151 23.6158 59.0478 23.4982 59.1172C22.563 59.6652 21.5786 60.1245 20.5579 60.4893C20.0977 60.6757 19.5315 60.7288 19.2147 61.1556C19.6185 61.5949 20.1077 61.9472 20.6523 62.191C23.1354 63.6287 25.6199 65.0652 28.1056 66.5005C28.9278 67.0167 29.8732 67.3033 30.8437 67.3303C31.8141 67.3572 32.774 67.1236 33.6236 66.6538C41.9038 61.9849 50.1836 57.3139 58.4631 52.6407C59.2908 52.2084 59.9866 51.5607 60.4768 50.7659C60.9671 49.9711 61.2337 49.0587 61.2485 48.1249V19.8775C61.2416 18.9783 60.9985 18.0967 60.5435 17.321C60.0886 16.5453 59.4379 15.9028 58.6565 15.4578H58.6564Z" fill="white"/>
</svg>
