<svg width="22" height="22" viewBox="0 0 22 22" fill="none" xmlns="http://www.w3.org/2000/svg">
<path fill-rule="evenodd" clip-rule="evenodd" d="M6.13866 4.07616C7.42797 2.78684 9.1766 2.0625 11 2.0625C12.8234 2.0625 14.572 2.78684 15.8613 4.07616C17.1507 5.36547 17.875 7.1141 17.875 8.9375C17.875 15.125 11 19.9375 11 19.9375C11 19.9375 4.125 15.125 4.125 8.9375C4.125 7.1141 4.84934 5.36547 6.13866 4.07616ZM9.47218 11.2241C9.92444 11.5262 10.4561 11.6875 11 11.6875C11.7294 11.6875 12.4288 11.3978 12.9445 10.882C13.4603 10.3663 13.75 9.66688 13.75 8.9375C13.75 8.39359 13.5887 7.86194 13.2866 7.40968C12.9844 6.95741 12.5548 6.60493 12.0524 6.3968C11.5499 6.18867 10.997 6.13421 10.4635 6.24037C9.93006 6.34645 9.44003 6.60838 9.0555 6.993C8.67088 7.37753 8.40895 7.86756 8.30287 8.40098C8.19671 8.93448 8.25117 9.48737 8.4593 9.9899C8.66743 10.4923 9.01991 10.9219 9.47218 11.2241Z" fill="#205584"/>
<path d="M4.8125 20.625H17.1875C17.5672 20.625 17.875 20.3172 17.875 19.9375C17.875 19.5578 17.5672 19.25 17.1875 19.25H4.8125C4.4328 19.25 4.125 19.5578 4.125 19.9375C4.125 20.3172 4.4328 20.625 4.8125 20.625Z" fill="#205584"/>
<path fill-rule="evenodd" clip-rule="evenodd" d="M11 5.5C11 5.5 12.4239 5.5 13.4307 6.50682C13.4307 6.50682 14.4375 7.51364 14.4375 8.9375C14.4375 8.9375 14.4375 10.3614 13.4307 11.3682C13.4307 11.3682 12.4239 12.375 11 12.375C11 12.375 9.57614 12.375 8.56932 11.3682C8.56932 11.3682 7.5625 10.3614 7.5625 8.9375C7.5625 8.9375 7.5625 7.51364 8.56932 6.50682C8.56932 6.50682 9.57614 5.5 11 5.5ZM11 6.875C11 6.875 10.1457 6.875 9.54159 7.47909C9.54159 7.47909 8.9375 8.08318 8.9375 8.9375C8.9375 8.9375 8.9375 9.79182 9.54159 10.3959C9.54159 10.3959 10.1457 11 11 11C11 11 11.8543 11 12.4584 10.3959C12.4584 10.3959 13.0625 9.79182 13.0625 8.9375C13.0625 8.9375 13.0625 8.08318 12.4584 7.47909C12.4584 7.47909 11.8543 6.875 11 6.875Z" fill="#205584"/>
<path fill-rule="evenodd" clip-rule="evenodd" d="M17.9868 6.04346C17.9868 6.04346 18.5625 7.43323 18.5625 8.9375C18.5625 8.9375 18.5625 13.0618 14.9563 17.2089C14.9563 17.2089 13.8481 18.4834 12.5195 19.6127C12.5195 19.6127 11.8504 20.1814 11.3943 20.5007C11.1575 20.6664 10.8425 20.6664 10.6057 20.5007C10.6057 20.5007 10.1496 20.1814 9.48052 19.6127C9.48052 19.6127 8.15195 18.4834 7.04371 17.2089C7.04371 17.2089 3.4375 13.0618 3.4375 8.9375C3.4375 8.9375 3.4375 7.43323 4.01316 6.04346C4.01316 6.04346 4.58882 4.65369 5.6525 3.59C5.6525 3.59 6.71619 2.52632 8.10596 1.95066C8.10596 1.95066 9.49573 1.375 11 1.375C11 1.375 12.5043 1.375 13.894 1.95066C13.894 1.95066 15.2838 2.52632 16.3475 3.59C16.3475 3.59 17.4112 4.65369 17.9868 6.04346ZM17.1875 8.9375C17.1875 8.9375 17.1875 7.70673 16.7165 6.56965C16.7165 6.56965 16.2455 5.43256 15.3752 4.56228C15.3752 4.56228 14.5049 3.69199 13.3679 3.221C13.3679 3.221 12.2308 2.75 11 2.75C11 2.75 9.76923 2.75 8.63215 3.221C8.63215 3.221 7.49506 3.69199 6.62478 4.56228C6.62478 4.56228 5.75449 5.43256 5.2835 6.56965C5.2835 6.56965 4.8125 7.70673 4.8125 8.9375C4.8125 8.9375 4.8125 12.5476 8.08129 16.3067C8.08129 16.3067 9.12148 17.5029 10.371 18.565C10.371 18.565 10.7198 18.8615 11 19.0805C11 19.0805 11.2802 18.8615 11.629 18.565C11.629 18.565 12.8785 17.5029 13.9187 16.3067C13.9187 16.3067 17.1875 12.5476 17.1875 8.9375Z" fill="#205584"/>
</svg>
