<svg width="27" height="26" viewBox="0 0 27 26" fill="none" xmlns="http://www.w3.org/2000/svg">
<path d="M9.93262 3.00427H17.1573V17.8565H9.93262V3.00427Z" fill="#FF5F00"/>
<path d="M5.04733 25.3323V23.7579C5.04733 23.1542 4.72616 22.7607 4.17566 22.7607C3.90046 22.7607 3.60228 22.8657 3.39583 23.2068C3.23535 22.9181 3.00602 22.7607 2.66197 22.7607C2.43253 22.7607 2.2033 22.8394 2.01973 23.128V22.8132H1.53809V25.3323H2.01973V23.9415C2.01973 23.4955 2.22618 23.2855 2.54735 23.2855C2.86831 23.2855 3.029 23.5217 3.029 23.9415V25.3323H3.51065V23.9415C3.51065 23.4955 3.73988 23.2855 4.03806 23.2855C4.35923 23.2855 4.51971 23.5217 4.51971 23.9415V25.3323H5.04733ZM12.1802 22.8132H11.4005V22.0522H10.9188V22.8132H10.4831V23.3117H10.9187V24.4664C10.9187 25.0437 11.1252 25.3847 11.6757 25.3847C11.8821 25.3847 12.1114 25.3061 12.2721 25.2011L12.1344 24.7287C11.9968 24.8337 11.8363 24.86 11.7216 24.86C11.4922 24.86 11.4005 24.7026 11.4005 24.4401V23.3117H12.1802V22.8132ZM16.2628 22.7606C15.9876 22.7606 15.8042 22.9181 15.6895 23.128V22.8132H15.2078V25.3323H15.6895V23.9153C15.6895 23.4955 15.8499 23.2593 16.1481 23.2593C16.2399 23.2593 16.3546 23.2856 16.4463 23.3118L16.5839 22.787C16.4922 22.7607 16.3546 22.7607 16.2628 22.7607V22.7606ZM10.0931 23.0231C9.86371 22.8394 9.54264 22.7607 9.19859 22.7607C8.6482 22.7607 8.28127 23.0756 8.28127 23.5741C8.28127 23.9941 8.55647 24.2302 9.03812 24.3089L9.26745 24.3352C9.51976 24.3876 9.65736 24.4664 9.65736 24.5976C9.65736 24.7812 9.4739 24.9125 9.15273 24.9125C8.83166 24.9125 8.57935 24.7812 8.41876 24.6501L8.18943 25.0699C8.44175 25.2798 8.7858 25.3847 9.12974 25.3847C9.77198 25.3847 10.139 25.0437 10.139 24.5713C10.139 24.1252 9.84083 23.889 9.38206 23.8104L9.15273 23.7841C8.94628 23.7578 8.7858 23.7054 8.7858 23.548C8.7858 23.3642 8.94628 23.2593 9.19859 23.2593C9.4739 23.2593 9.74909 23.3904 9.88669 23.4692L10.0931 23.0231ZM22.8913 22.7607C22.616 22.7607 22.4325 22.9181 22.3178 23.128V22.8132H21.8362V25.3323H22.3178V23.9153C22.3178 23.4955 22.4784 23.2593 22.7765 23.2593C22.8683 23.2593 22.983 23.2856 23.0748 23.3118L23.2124 22.787C23.1206 22.7607 22.983 22.7607 22.8913 22.7607ZM16.7445 24.0727C16.7445 24.8337 17.2032 25.3847 17.9142 25.3847C18.2353 25.3847 18.4646 25.3061 18.694 25.0962L18.4646 24.6501C18.2812 24.8075 18.0977 24.8862 17.8913 24.8862C17.5013 24.8862 17.2261 24.5713 17.2261 24.0727C17.2261 23.6004 17.5013 23.2855 17.8913 23.2593C18.0977 23.2593 18.2812 23.338 18.4646 23.4955L18.694 23.0494C18.4646 22.8394 18.2353 22.7607 17.9142 22.7607C17.2032 22.7607 16.7445 23.3118 16.7445 24.0727ZM21.194 24.0727V22.8132H20.7124V23.128C20.5518 22.892 20.3225 22.7607 20.0243 22.7607C19.4051 22.7607 18.9234 23.3118 18.9234 24.0727C18.9234 24.8337 19.4051 25.3847 20.0243 25.3847C20.3454 25.3847 20.5748 25.2536 20.7124 25.0174V25.3323H21.194V24.0727ZM19.4279 24.0727C19.4279 23.6266 19.6802 23.2593 20.093 23.2593C20.483 23.2593 20.7583 23.6004 20.7583 24.0727C20.7583 24.5188 20.483 24.8862 20.093 24.8862C19.6802 24.8599 19.4279 24.5188 19.4279 24.0727ZM13.6711 22.7607C13.0289 22.7607 12.5701 23.2855 12.5701 24.0727C12.5701 24.86 13.0288 25.3847 13.694 25.3847C14.0151 25.3847 14.3362 25.2798 14.5886 25.0437L14.3591 24.6501C14.1757 24.8075 13.9463 24.9125 13.717 24.9125C13.4188 24.9125 13.1206 24.755 13.0518 24.3088H14.6803V24.099C14.7033 23.2855 14.2904 22.7607 13.671 22.7607H13.6711ZM13.6711 23.233C13.9692 23.233 14.1758 23.443 14.2215 23.8366H13.0748C13.1206 23.4955 13.3271 23.233 13.6711 23.233ZM25.6206 24.0727V21.816H25.139V23.128C24.9784 22.892 24.749 22.7607 24.4509 22.7607C23.8316 22.7607 23.35 23.3118 23.35 24.0727C23.35 24.8337 23.8316 25.3847 24.4509 25.3847C24.772 25.3847 25.0014 25.2536 25.139 25.0174V25.3323H25.6206V24.0727ZM23.8546 24.0727C23.8546 23.6266 24.1068 23.2593 24.5197 23.2593C24.9096 23.2593 25.1848 23.6004 25.1848 24.0727C25.1848 24.5188 24.9096 24.8862 24.5197 24.8862C24.1068 24.8599 23.8546 24.5188 23.8546 24.0727ZM7.75365 24.0727V22.8132H7.272V23.128C7.11142 22.892 6.88209 22.7607 6.5839 22.7607C5.96465 22.7607 5.48301 23.3118 5.48301 24.0727C5.48301 24.8337 5.96465 25.3847 6.5839 25.3847C6.90507 25.3847 7.1344 25.2536 7.272 25.0174V25.3323H7.75365V24.0727ZM5.96465 24.0727C5.96465 23.6266 6.21697 23.2593 6.62977 23.2593C7.01968 23.2593 7.29499 23.6004 7.29499 24.0727C7.29499 24.5188 7.01968 24.8862 6.62977 24.8862C6.21697 24.8599 5.96465 24.5188 5.96465 24.0727Z" fill="white"/>
<path d="M10.391 10.4302C10.391 7.41255 11.6295 4.73594 13.5331 3.00401C12.1342 1.74448 10.3681 0.983521 8.44155 0.983521C3.87717 0.983521 0.18457 5.20822 0.18457 10.4302C0.18457 15.652 3.87717 19.8769 8.44144 19.8769C10.368 19.8769 12.134 19.1159 13.5331 17.8563C11.6295 16.1506 10.391 13.4478 10.391 10.4302Z" fill="#EB001B"/>
<path d="M26.9042 10.4304C26.9042 15.6522 23.2116 19.877 18.6473 19.877C16.7208 19.877 14.9547 19.1161 13.5557 17.8564C15.4823 16.1246 16.6979 13.448 16.6979 10.4304C16.6979 7.41273 15.4593 4.73612 13.5557 3.00419C14.9546 1.74466 16.7208 0.983704 18.6473 0.983704C23.2116 0.983704 26.9043 5.2347 26.9043 10.4304H26.9042Z" fill="#F79E1B"/>
</svg>
