<svg width="17" height="17" viewBox="0 0 17 17" fill="none" xmlns="http://www.w3.org/2000/svg">
<g clip-path="url(#clip0_1055_6439)">
<path d="M11.8333 1.83398H5.16659C4.43021 1.83398 3.83325 2.43094 3.83325 3.16732V13.834C3.83325 14.5704 4.43021 15.1673 5.16659 15.1673H11.8333C12.5696 15.1673 13.1666 14.5704 13.1666 13.834V3.16732C13.1666 2.43094 12.5696 1.83398 11.8333 1.83398Z" stroke="white" stroke-width="2" stroke-linecap="round" stroke-linejoin="round"/>
<path d="M11.8333 1.83398H5.16659C4.43021 1.83398 3.83325 2.43094 3.83325 3.16732V13.834C3.83325 14.5704 4.43021 15.1673 5.16659 15.1673H11.8333C12.5696 15.1673 13.1666 14.5704 13.1666 13.834V3.16732C13.1666 2.43094 12.5696 1.83398 11.8333 1.83398Z" stroke="white" stroke-width="2" stroke-linecap="round" stroke-linejoin="round"/>
<path d="M8.5 12.5H8.50667" stroke="white" stroke-width="2" stroke-linecap="round" stroke-linejoin="round"/>
</g>
<defs>
<clipPath id="clip0_1055_6439">
<rect width="16" height="16" fill="white" transform="translate(0.5 0.5)"/>
</clipPath>
</defs>
</svg>
