<svg width="17" height="17" viewBox="0 0 17 17" fill="none" xmlns="http://www.w3.org/2000/svg">
<g clip-path="url(#clip0_1159_6871)">
<path d="M10.5331 3.83268C11.1843 3.95973 11.7827 4.27819 12.2518 4.74731C12.721 5.21642 13.0394 5.81486 13.1665 6.46602M10.5331 1.16602C11.886 1.31631 13.1475 1.92213 14.1106 2.88402C15.0737 3.84591 15.6811 5.10669 15.8331 6.45935M15.1665 11.7793V13.7793C15.1672 13.965 15.1292 14.1488 15.0548 14.3189C14.9804 14.489 14.8713 14.6417 14.7345 14.7673C14.5977 14.8928 14.4362 14.9883 14.2603 15.0478C14.0844 15.1073 13.898 15.1294 13.7131 15.1127C11.6617 14.8898 9.69113 14.1888 7.95979 13.066C6.34901 12.0425 4.98335 10.6768 3.95979 9.06602C2.83311 7.32682 2.13195 5.34668 1.91313 3.28602C1.89647 3.10166 1.91838 2.91586 1.97746 2.74043C2.03654 2.56501 2.13151 2.40381 2.2563 2.2671C2.3811 2.13038 2.533 2.02116 2.70232 1.94636C2.87164 1.87157 3.05469 1.83286 3.23979 1.83268H5.23979C5.56333 1.8295 5.87699 1.94407 6.1223 2.15504C6.36761 2.36601 6.52784 2.65898 6.57313 2.97935C6.65754 3.61939 6.81409 4.24783 7.03979 4.85268C7.12949 5.0913 7.1489 5.35063 7.09573 5.59994C7.04256 5.84925 6.91903 6.07809 6.73979 6.25935L5.89313 7.10602C6.84216 8.77505 8.2241 10.157 9.89313 11.106L10.7398 10.2593C10.9211 10.0801 11.1499 9.95658 11.3992 9.90341C11.6485 9.85024 11.9078 9.86965 12.1465 9.95935C12.7513 10.185 13.3797 10.3416 14.0198 10.426C14.3436 10.4717 14.6394 10.6348 14.8508 10.8843C15.0622 11.1339 15.1746 11.4524 15.1665 11.7793Z" stroke="white" stroke-linecap="round" stroke-linejoin="round"/>
</g>
<defs>
<clipPath id="clip0_1159_6871">
<rect width="16" height="16" fill="white" transform="translate(0.5 0.5)"/>
</clipPath>
</defs>
</svg>
