<svg width="60" height="68" viewBox="0 0 60 68" fill="none" xmlns="http://www.w3.org/2000/svg">
<path d="M27.01 28.7924C25.9903 29.3812 25.1681 30.259 24.6474 31.315C24.1266 32.371 23.9307 33.5577 24.0844 34.7251C24.2381 35.8924 24.7345 36.988 25.5108 37.8732C26.2872 38.7584 27.3086 39.3936 28.4459 39.6983C29.5832 40.003 30.7853 39.9636 31.9003 39.5851C33.0152 39.2066 33.9929 38.506 34.7096 37.5718C35.4263 36.6377 35.85 35.512 35.9269 34.3371C36.0039 33.1622 35.7307 31.9908 35.1419 30.9712C34.3524 29.604 33.0522 28.6064 31.5272 28.1978C30.0022 27.7892 28.3773 28.0031 27.01 28.7924ZM53.6924 35.2514C53.3015 34.8047 52.8891 34.3568 52.4552 33.9078C52.7583 33.5892 53.0516 33.2709 53.3352 32.9528C58.6879 26.9386 60.9471 20.9071 58.8538 17.281C56.8465 13.8043 50.8757 12.7683 43.4007 14.2217C42.6644 14.3658 41.9322 14.5283 41.204 14.7092C41.0646 14.2287 40.9164 13.7509 40.7592 13.2758C38.2234 5.63408 34.127 0.663383 29.9402 0.666017C25.9255 0.66785 22.0453 5.32298 19.57 12.5243C19.3265 13.2348 19.1012 13.9511 18.8942 14.6734C18.4073 14.5539 17.9184 14.4436 17.4275 14.3424C9.54082 12.7231 3.18859 13.7896 1.09936 17.4177C-0.903976 20.8969 1.19113 26.5838 6.19439 32.3247C6.69059 32.8928 7.20084 33.4481 7.72513 33.9906C7.10706 34.6273 6.52179 35.2636 5.97629 35.8963C1.09429 41.5563 -0.881009 47.1502 1.11909 50.6143C3.18472 54.1926 9.44756 55.3622 17.0704 53.8622C17.6882 53.7397 18.3026 53.602 18.9135 53.4489C19.1373 54.2301 19.3828 55.0046 19.65 55.7722C22.1144 62.8291 25.9728 67.3343 29.9733 67.3329C34.1048 67.3304 38.2465 62.4899 40.7558 55.1371C40.954 54.556 41.1416 53.9525 41.3194 53.3312C42.1086 53.5275 42.9028 53.7018 43.7022 53.8539C51.0467 55.2434 56.8772 54.1505 58.8737 50.6839C60.9353 47.103 58.8096 41.0971 53.6923 35.2514H53.6924ZM3.56732 18.8388C4.85352 16.6055 10.0448 15.7342 16.8543 17.1321C17.2895 17.2216 17.7321 17.3216 18.1822 17.4321C17.5174 20.373 17.0483 23.3548 16.778 26.3577C14.321 28.0862 11.9784 29.9719 9.76503 32.003C9.27736 31.4987 8.80271 30.9822 8.34109 30.4534L8.34129 30.4536C4.05439 25.5346 2.36002 20.9354 3.56732 18.8388ZM16.5229 37.9324C14.821 36.6438 13.2394 35.3236 11.8038 33.9958C13.2384 32.6762 14.821 31.3605 16.5194 30.0753C16.4584 31.3845 16.4281 32.6947 16.4287 34.0059C16.4296 35.3153 16.461 36.6241 16.5229 37.9324ZM16.5208 51.0678C13.6317 51.7102 10.649 51.8155 7.72179 51.3783C6.91935 51.3158 6.13824 51.0894 5.42673 50.7131C4.71523 50.3369 4.08845 49.8187 3.58512 49.1906C2.37156 47.0883 3.95766 42.5972 8.13286 37.7565C8.65777 37.1498 9.19989 36.559 9.75922 35.984C11.973 38.0258 14.3193 39.9189 16.783 41.6509C17.057 44.6922 17.5316 47.7121 18.2037 50.6909C17.6459 50.8304 17.085 50.956 16.5208 51.0678ZM40.1913 24.2699C39.0733 23.5655 37.9415 22.8837 36.7959 22.2245C35.6686 21.5756 34.5277 20.951 33.3732 20.3509C35.3499 19.5198 37.2929 18.8099 39.1687 18.2315C39.6109 20.2258 39.9522 22.2412 40.1913 24.2699ZM22.2634 13.45C24.3841 7.27958 27.5221 3.51495 29.9418 3.51392C32.5187 3.51268 35.8669 7.57478 38.0562 14.1727C38.1984 14.6028 38.3329 15.0353 38.4595 15.4703C35.5832 16.3624 32.7691 17.4439 30.0357 18.7076C27.3136 17.429 24.5083 16.3355 21.639 15.4345C21.8308 14.768 22.0389 14.1065 22.2634 13.45ZM20.9288 18.196C22.8854 18.812 24.8097 19.5262 26.6944 20.336C24.3592 21.5411 22.0843 22.8538 19.8698 24.274C20.1374 22.1474 20.4934 20.1098 20.9288 18.196ZM19.8747 43.7316C20.979 44.4386 22.0995 45.1194 23.2361 45.774C24.3955 46.4416 25.5704 47.0811 26.7607 47.6926C24.8616 48.5304 22.9208 49.2702 20.9459 49.909C20.5054 47.9687 20.1455 45.8953 19.8747 43.7316ZM38.0603 54.2166C37.1735 57.0404 35.7746 59.6768 33.9334 61.9941L33.9332 61.9944C33.4782 62.6581 32.8919 63.2216 32.2105 63.6499C31.5292 64.0781 30.7672 64.3622 29.9718 64.4843C27.5444 64.4857 24.4463 60.8677 22.3387 54.8328C22.0905 54.1193 21.8622 53.3993 21.6537 52.6729C24.5367 51.7428 27.3534 50.6183 30.0843 49.3072C32.8402 50.5791 35.6767 51.6687 38.5755 52.5689C38.4172 53.1221 38.2455 53.6714 38.0603 54.2166ZM39.2678 49.8026C37.3704 49.2159 35.3992 48.4942 33.394 47.6509C34.5244 47.056 35.6629 46.4277 36.8097 45.7661C37.9865 45.0866 39.1333 44.39 40.2501 43.6765C40.0276 45.734 39.6998 47.7788 39.2678 49.8027V49.8026ZM40.7554 33.9936C40.7579 36.018 40.6947 38.0407 40.5658 40.0618C38.9236 41.1732 37.1898 42.2584 35.3858 43.2999C33.5894 44.3371 31.8094 45.2902 30.0634 46.1529C28.226 45.2723 26.424 44.3235 24.6575 43.3062C22.9009 42.2951 21.1846 41.2184 19.5086 40.0762C19.3554 38.0557 19.2782 36.0316 19.277 34.0038L19.2774 34.0044C19.276 31.9781 19.3515 29.9538 19.5039 27.9317C21.1457 26.8104 22.8669 25.726 24.6465 24.6986C26.4342 23.6663 28.2365 22.7172 30.0288 21.857C31.8435 22.739 33.6256 23.6841 35.3749 24.6925C37.1302 25.7014 38.8513 26.7666 40.5382 27.8881C40.6831 29.9202 40.7555 31.9554 40.7557 33.9936H40.7554ZM43.9445 17.0175C50.349 15.7718 55.1779 16.6098 56.3876 18.705C57.6762 20.937 55.8293 25.8666 51.2081 31.0595L51.2079 31.0597C50.9526 31.3461 50.6877 31.6338 50.4132 31.9227C48.1615 29.8873 45.7738 28.0075 43.2667 26.2965C43.0137 23.3264 42.5622 20.3766 41.9152 17.4667C42.6048 17.2971 43.2812 17.1474 43.9445 17.0175ZM43.5116 29.9665C45.2027 31.2013 46.8286 32.5229 48.3828 33.926C46.8355 35.3523 45.2147 36.6967 43.5271 37.9537C43.5787 36.6339 43.6041 35.3134 43.6033 33.9923C43.6027 32.6501 43.5721 31.3082 43.5116 29.9665ZM56.4053 49.2624C55.1937 51.3663 50.5123 52.2436 44.2312 51.0552C43.5114 50.9193 42.7728 50.7576 42.0154 50.57C42.6468 47.6227 43.0783 44.6362 43.3069 41.6308C45.8098 39.8899 48.19 37.9788 50.4305 35.9112C50.8226 36.3185 51.1955 36.7239 51.5493 37.1274V37.1272C53.5529 39.3057 55.1383 41.8344 56.2262 44.5869C56.5742 45.3126 56.7695 46.1019 56.8003 46.9061C56.8311 47.7103 56.6967 48.5123 56.4053 49.2624Z" fill="white"/>
</svg>
