<svg width="56" height="56" viewBox="0 0 56 56" fill="none" xmlns="http://www.w3.org/2000/svg">
<path fill-rule="evenodd" clip-rule="evenodd" d="M23.7693 29.7009L16.0509 27.1281C11.3444 25.5592 8.99121 24.7748 8.99121 23.3333C8.99121 21.8918 11.3444 21.1074 16.0508 19.5386L16.0509 19.5386L39.0772 11.8631C42.3888 10.7593 44.0446 10.2074 44.9186 11.0814C45.7926 11.9554 45.2407 13.6112 44.1368 16.9228L36.4614 39.9491C34.8926 44.6555 34.1082 47.0088 32.6667 47.0088C31.2251 47.0088 30.4407 44.6555 28.8719 39.9491L26.2991 32.2307L26.2991 32.2307L26.2991 32.2306C26.1891 31.9007 26.0986 31.6293 26.0128 31.4014L35.7071 21.7071C36.0976 21.3166 36.0976 20.6834 35.7071 20.2929C35.3166 19.9024 34.6834 19.9024 34.2929 20.2929L24.5986 29.9872C24.3707 29.9013 24.0992 29.8108 23.7693 29.7009Z" fill="white"/>
</svg>
