<svg width="17" height="16" viewBox="0 0 17 16" fill="none" xmlns="http://www.w3.org/2000/svg">
<g clip-path="url(#clip0_1159_6736)">
<path d="M8.50016 14.6673C12.1821 14.6673 15.1668 11.6825 15.1668 8.00065C15.1668 4.31875 12.1821 1.33398 8.50016 1.33398C4.81826 1.33398 1.8335 4.31875 1.8335 8.00065C1.8335 11.6825 4.81826 14.6673 8.50016 14.6673Z" stroke="white" stroke-width="2" stroke-linecap="round" stroke-linejoin="round"/>
<path d="M8.50016 14.6673C12.1821 14.6673 15.1668 11.6825 15.1668 8.00065C15.1668 4.31875 12.1821 1.33398 8.50016 1.33398C4.81826 1.33398 1.8335 4.31875 1.8335 8.00065C1.8335 11.6825 4.81826 14.6673 8.50016 14.6673Z" stroke="white" stroke-width="2" stroke-linecap="round" stroke-linejoin="round"/>
<path d="M5.8335 9.33398C5.8335 9.33398 6.8335 10.6673 8.50016 10.6673C10.1668 10.6673 11.1668 9.33398 11.1668 9.33398" stroke="white" stroke-width="2" stroke-linecap="round" stroke-linejoin="round"/>
<path d="M6.5 6H6.50667" stroke="white" stroke-width="2" stroke-linecap="round" stroke-linejoin="round"/>
<path d="M10.5 6H10.5067" stroke="white" stroke-width="2" stroke-linecap="round" stroke-linejoin="round"/>
</g>
<defs>
<clipPath id="clip0_1159_6736">
<rect width="16" height="16" fill="white" transform="translate(0.5)"/>
</clipPath>
</defs>
</svg>
