<svg width="37" height="37" viewBox="0 0 37 37" fill="none" xmlns="http://www.w3.org/2000/svg">
<path fill-rule="evenodd" clip-rule="evenodd" d="M14.7693 19.7009L7.05086 17.1281C2.34443 15.5592 -0.00878906 14.7748 -0.00878906 13.3333C-0.00878906 11.8918 2.34442 11.1074 7.05085 9.53859L7.05086 9.53859L30.0772 1.86315C33.3888 0.759284 35.0446 0.207354 35.9186 1.08139C36.7926 1.95542 36.2407 3.61121 35.1368 6.92279L27.4614 29.9491C25.8926 34.6555 25.1082 37.0088 23.6667 37.0088C22.2251 37.0088 21.4407 34.6555 19.8719 29.9491L17.2991 22.2307L17.2991 22.2307L17.2991 22.2306C17.1891 21.9007 17.0986 21.6293 17.0128 21.4014L26.7071 11.7071C27.0976 11.3166 27.0976 10.6834 26.7071 10.2929C26.3166 9.90236 25.6834 9.90236 25.2929 10.2929L15.5986 19.9872C15.3707 19.9013 15.0992 19.8108 14.7693 19.7009Z" fill="white"/>
</svg>
