<svg width="205" height="194" viewBox="0 0 205 194" fill="none" xmlns="http://www.w3.org/2000/svg">
<rect y="0.391602" width="205" height="193" rx="10" fill="white"/>
<path d="M54.7727 164.005V162.755H63.5V164.005H59.8409V174.392H58.4318V164.005H54.7727ZM66.8736 174.596C66.3205 174.596 65.8187 174.492 65.3679 174.284C64.9171 174.072 64.5592 173.767 64.294 173.369C64.0289 172.967 63.8963 172.483 63.8963 171.914C63.8963 171.414 63.9948 171.009 64.1918 170.698C64.3887 170.384 64.652 170.138 64.9815 169.96C65.3111 169.782 65.6747 169.649 66.0724 169.562C66.474 169.471 66.8774 169.399 67.2827 169.346C67.813 169.278 68.2429 169.227 68.5724 169.193C68.9058 169.155 69.1482 169.092 69.2997 169.005C69.455 168.918 69.5327 168.767 69.5327 168.551V168.505C69.5327 167.945 69.3793 167.509 69.0724 167.198C68.7694 166.888 68.3092 166.733 67.6918 166.733C67.0516 166.733 66.5497 166.873 66.1861 167.153C65.8224 167.433 65.5668 167.733 65.419 168.051L64.1463 167.596C64.3736 167.066 64.6766 166.653 65.0554 166.358C65.438 166.058 65.8546 165.85 66.3054 165.733C66.7599 165.611 67.2069 165.551 67.6463 165.551C67.9266 165.551 68.2486 165.585 68.6122 165.653C68.9796 165.717 69.3338 165.852 69.6747 166.056C70.0194 166.261 70.3054 166.57 70.5327 166.983C70.7599 167.395 70.8736 167.948 70.8736 168.642V174.392H69.5327V173.21H69.4645C69.3736 173.399 69.2221 173.602 69.0099 173.818C68.7978 174.034 68.5156 174.217 68.1634 174.369C67.8111 174.52 67.3812 174.596 66.8736 174.596ZM67.0781 173.392C67.6084 173.392 68.0554 173.287 68.419 173.079C68.7865 172.871 69.063 172.602 69.2486 172.272C69.438 171.943 69.5327 171.596 69.5327 171.233V170.005C69.4759 170.073 69.3509 170.136 69.1577 170.193C68.9683 170.246 68.7486 170.293 68.4986 170.335C68.2524 170.373 68.0118 170.407 67.777 170.437C67.5459 170.464 67.3584 170.486 67.2145 170.505C66.866 170.551 66.5402 170.625 66.2372 170.727C65.938 170.825 65.6955 170.975 65.5099 171.176C65.3281 171.373 65.2372 171.642 65.2372 171.983C65.2372 172.448 65.4096 172.801 65.7543 173.039C66.1027 173.274 66.544 173.392 67.0781 173.392ZM74.571 171.21L74.5483 169.551H74.821L78.6392 165.664H80.2983L76.2301 169.778H76.1165L74.571 171.21ZM73.321 174.392V162.755H74.6619V174.392H73.321ZM78.8665 174.392L75.4574 170.073L76.4119 169.142L80.571 174.392H78.8665ZM85.3239 174.573C84.483 174.573 83.7576 174.388 83.1477 174.017C82.5417 173.642 82.0739 173.119 81.7443 172.448C81.4186 171.774 81.2557 170.99 81.2557 170.096C81.2557 169.202 81.4186 168.414 81.7443 167.733C82.0739 167.047 82.5322 166.513 83.1193 166.13C83.7102 165.744 84.3996 165.551 85.1875 165.551C85.642 165.551 86.0909 165.626 86.5341 165.778C86.9773 165.929 87.3807 166.176 87.7443 166.517C88.108 166.854 88.3977 167.301 88.6136 167.858C88.8295 168.414 88.9375 169.1 88.9375 169.914V170.483H82.2102V169.323H87.5739C87.5739 168.831 87.4754 168.392 87.2784 168.005C87.0852 167.619 86.8087 167.314 86.4489 167.09C86.0928 166.867 85.6723 166.755 85.1875 166.755C84.6534 166.755 84.1913 166.888 83.8011 167.153C83.4148 167.414 83.1174 167.755 82.9091 168.176C82.7008 168.596 82.5966 169.047 82.5966 169.528V170.301C82.5966 170.96 82.7102 171.518 82.9375 171.977C83.1686 172.431 83.4886 172.778 83.8977 173.017C84.3068 173.251 84.7822 173.369 85.3239 173.369C85.6761 173.369 85.9943 173.32 86.2784 173.221C86.5663 173.119 86.8144 172.967 87.0227 172.767C87.2311 172.562 87.392 172.308 87.5057 172.005L88.8011 172.369C88.6648 172.808 88.4356 173.195 88.1136 173.528C87.7917 173.858 87.3939 174.115 86.9205 174.301C86.447 174.483 85.9148 174.573 85.3239 174.573ZM95.4773 177.664V165.664H96.7727V167.051H96.9318C97.0303 166.899 97.1667 166.706 97.3409 166.471C97.5189 166.233 97.7727 166.02 98.1023 165.835C98.4356 165.645 98.8864 165.551 99.4545 165.551C100.189 165.551 100.837 165.734 101.398 166.102C101.958 166.469 102.396 166.99 102.71 167.664C103.025 168.339 103.182 169.134 103.182 170.051C103.182 170.975 103.025 171.776 102.71 172.454C102.396 173.128 101.96 173.651 101.403 174.022C100.847 174.39 100.205 174.573 99.4773 174.573C98.9167 174.573 98.4678 174.481 98.1307 174.295C97.7936 174.106 97.5341 173.892 97.3523 173.653C97.1705 173.411 97.0303 173.21 96.9318 173.051H96.8182V177.664H95.4773ZM96.7955 170.028C96.7955 170.687 96.892 171.268 97.0852 171.772C97.2784 172.272 97.5606 172.664 97.9318 172.948C98.303 173.229 98.7576 173.369 99.2955 173.369C99.8561 173.369 100.324 173.221 100.699 172.926C101.078 172.626 101.362 172.225 101.551 171.721C101.744 171.214 101.841 170.649 101.841 170.028C101.841 169.414 101.746 168.861 101.557 168.369C101.371 167.873 101.089 167.481 100.71 167.193C100.335 166.901 99.8636 166.755 99.2955 166.755C98.75 166.755 98.2917 166.893 97.9205 167.17C97.5492 167.443 97.2689 167.825 97.0795 168.318C96.8902 168.806 96.7955 169.376 96.7955 170.028ZM105.227 174.392V165.664H106.568V174.392H105.227ZM105.909 164.21C105.648 164.21 105.422 164.121 105.233 163.943C105.047 163.765 104.955 163.551 104.955 163.301C104.955 163.051 105.047 162.837 105.233 162.659C105.422 162.481 105.648 162.392 105.909 162.392C106.17 162.392 106.394 162.481 106.58 162.659C106.769 162.837 106.864 163.051 106.864 163.301C106.864 163.551 106.769 163.765 106.58 163.943C106.394 164.121 106.17 164.21 105.909 164.21ZM112.57 174.573C111.751 174.573 111.047 174.38 110.456 173.994C109.865 173.608 109.411 173.075 109.092 172.397C108.774 171.719 108.615 170.945 108.615 170.073C108.615 169.187 108.778 168.405 109.104 167.727C109.433 167.045 109.892 166.513 110.479 166.13C111.07 165.744 111.759 165.551 112.547 165.551C113.161 165.551 113.714 165.664 114.206 165.892C114.698 166.119 115.102 166.437 115.416 166.846C115.731 167.255 115.926 167.733 116.001 168.278H114.661C114.558 167.88 114.331 167.528 113.979 167.221C113.63 166.911 113.161 166.755 112.57 166.755C112.047 166.755 111.589 166.892 111.195 167.164C110.804 167.433 110.5 167.814 110.28 168.306C110.064 168.795 109.956 169.369 109.956 170.028C109.956 170.702 110.062 171.289 110.274 171.789C110.49 172.289 110.793 172.678 111.183 172.954C111.577 173.231 112.039 173.369 112.57 173.369C112.918 173.369 113.234 173.308 113.518 173.187C113.803 173.066 114.043 172.892 114.24 172.664C114.437 172.437 114.577 172.164 114.661 171.846H116.001C115.926 172.361 115.738 172.825 115.439 173.238C115.143 173.647 114.751 173.973 114.263 174.215C113.778 174.454 113.214 174.573 112.57 174.573ZM121.757 165.664V166.801H117.234V165.664H121.757ZM118.553 163.573H119.893V171.892C119.893 172.27 119.948 172.554 120.058 172.744C120.172 172.929 120.316 173.054 120.49 173.119C120.668 173.179 120.856 173.21 121.053 173.21C121.2 173.21 121.321 173.202 121.416 173.187C121.511 173.168 121.587 173.153 121.643 173.142L121.916 174.346C121.825 174.38 121.698 174.414 121.536 174.448C121.373 174.486 121.166 174.505 120.916 174.505C120.537 174.505 120.166 174.424 119.803 174.261C119.443 174.098 119.143 173.85 118.905 173.517C118.67 173.183 118.553 172.763 118.553 172.255V163.573ZM129.274 170.823V165.664H130.615V174.392H129.274V172.914H129.183C128.979 173.358 128.661 173.734 128.229 174.045C127.797 174.352 127.251 174.505 126.592 174.505C126.047 174.505 125.562 174.386 125.138 174.147C124.714 173.905 124.38 173.541 124.138 173.056C123.895 172.568 123.774 171.952 123.774 171.21V165.664H125.115V171.119C125.115 171.755 125.293 172.263 125.649 172.642C126.009 173.02 126.467 173.21 127.024 173.21C127.357 173.21 127.696 173.125 128.041 172.954C128.39 172.784 128.681 172.522 128.916 172.17C129.155 171.818 129.274 171.369 129.274 170.823ZM133.071 174.392V165.664H134.366V166.983H134.457C134.616 166.551 134.904 166.2 135.321 165.931C135.738 165.662 136.207 165.528 136.73 165.528C136.829 165.528 136.952 165.53 137.099 165.534C137.247 165.537 137.359 165.543 137.435 165.551V166.914C137.389 166.903 137.285 166.886 137.122 166.863C136.963 166.837 136.795 166.823 136.616 166.823C136.192 166.823 135.813 166.912 135.48 167.09C135.151 167.265 134.889 167.507 134.696 167.818C134.507 168.125 134.412 168.475 134.412 168.869V174.392H133.071ZM142.418 174.573C141.577 174.573 140.851 174.388 140.241 174.017C139.635 173.642 139.168 173.119 138.838 172.448C138.512 171.774 138.349 170.99 138.349 170.096C138.349 169.202 138.512 168.414 138.838 167.733C139.168 167.047 139.626 166.513 140.213 166.13C140.804 165.744 141.493 165.551 142.281 165.551C142.736 165.551 143.185 165.626 143.628 165.778C144.071 165.929 144.474 166.176 144.838 166.517C145.202 166.854 145.491 167.301 145.707 167.858C145.923 168.414 146.031 169.1 146.031 169.914V170.483H139.304V169.323H144.668C144.668 168.831 144.569 168.392 144.372 168.005C144.179 167.619 143.902 167.314 143.543 167.09C143.187 166.867 142.766 166.755 142.281 166.755C141.747 166.755 141.285 166.888 140.895 167.153C140.509 167.414 140.211 167.755 140.003 168.176C139.795 168.596 139.69 169.047 139.69 169.528V170.301C139.69 170.96 139.804 171.518 140.031 171.977C140.262 172.431 140.582 172.778 140.991 173.017C141.401 173.251 141.876 173.369 142.418 173.369C142.77 173.369 143.088 173.32 143.372 173.221C143.66 173.119 143.908 172.967 144.116 172.767C144.325 172.562 144.486 172.308 144.599 172.005L145.895 172.369C145.759 172.808 145.529 173.195 145.207 173.528C144.885 173.858 144.488 174.115 144.014 174.301C143.541 174.483 143.009 174.573 142.418 174.573Z" fill="#132E40"/>
<g clip-path="url(#clip0_123_57674)">
<path fill-rule="evenodd" clip-rule="evenodd" d="M67.0938 43.8291C64.5328 43.8291 62.0766 44.8465 60.2658 46.6574C58.4549 48.4683 57.4375 50.9244 57.4375 53.4854V59.9229C57.4375 61.7005 55.9964 63.1416 54.2188 63.1416C52.4411 63.1416 51 61.7005 51 59.9229V53.4854C51 49.217 52.6956 45.1235 55.7138 42.1054C58.7319 39.0872 62.8254 37.3916 67.0938 37.3916H73.5312C75.3089 37.3916 76.75 38.8327 76.75 40.6104C76.75 42.388 75.3089 43.8291 73.5312 43.8291H67.0938Z" fill="black"/>
<path fill-rule="evenodd" clip-rule="evenodd" d="M128.25 40.6104C128.25 38.8327 129.691 37.3916 131.469 37.3916H137.906C142.175 37.3916 146.268 39.0872 149.286 42.1054C152.304 45.1235 154 49.217 154 53.4854V59.9229C154 61.7005 152.559 63.1416 150.781 63.1416C149.004 63.1416 147.562 61.7005 147.562 59.9229V53.4854C147.562 50.9244 146.545 48.4683 144.734 46.6574C142.923 44.8465 140.467 43.8291 137.906 43.8291H131.469C129.691 43.8291 128.25 42.388 128.25 40.6104Z" fill="black"/>
<path fill-rule="evenodd" clip-rule="evenodd" d="M150.781 114.642C152.559 114.642 154 116.083 154 117.86V124.298C154 128.566 152.304 132.66 149.286 135.678C146.268 138.696 142.175 140.392 137.906 140.392H131.469C129.691 140.392 128.25 138.951 128.25 137.173C128.25 135.395 129.691 133.954 131.469 133.954H137.906C140.467 133.954 142.923 132.937 144.734 131.126C146.545 129.315 147.562 126.859 147.562 124.298V117.86C147.562 116.083 149.004 114.642 150.781 114.642Z" fill="black"/>
<path fill-rule="evenodd" clip-rule="evenodd" d="M54.2188 114.642C55.9964 114.642 57.4375 116.083 57.4375 117.86V124.298C57.4375 126.859 58.4549 129.315 60.2658 131.126C62.0766 132.937 64.5328 133.954 67.0938 133.954H73.5312C75.3089 133.954 76.75 135.395 76.75 137.173C76.75 138.951 75.3089 140.392 73.5312 140.392H67.0938C62.8254 140.392 58.7319 138.696 55.7138 135.678C52.6956 132.66 51 128.566 51 124.298V117.86C51 116.083 52.4411 114.642 54.2188 114.642Z" fill="black"/>
</g>
<path fill-rule="evenodd" clip-rule="evenodd" d="M75.875 60.8916C71.94 60.8916 68.75 64.0816 68.75 68.0166V110.767C68.75 114.702 71.94 117.892 75.875 117.892H128.125C132.06 117.892 135.25 114.702 135.25 110.767V68.0166C135.25 64.0816 132.06 60.8916 128.125 60.8916H75.875ZM64 68.0166C64 61.4582 69.3166 56.1416 75.875 56.1416H128.125C134.683 56.1416 140 61.4582 140 68.0166V110.767C140 117.325 134.683 122.642 128.125 122.642H75.875C69.3166 122.642 64 117.325 64 110.767V68.0166Z" fill="black"/>
<path fill-rule="evenodd" clip-rule="evenodd" d="M102 72.7666C92.8183 72.7666 85.375 80.2099 85.375 89.3916C85.375 98.5733 92.8183 106.017 102 106.017C111.182 106.017 118.625 98.5733 118.625 89.3916C118.625 80.2099 111.182 72.7666 102 72.7666ZM80.625 89.3916C80.625 77.5865 90.1949 68.0166 102 68.0166C113.805 68.0166 123.375 77.5865 123.375 89.3916C123.375 101.197 113.805 110.767 102 110.767C90.1949 110.767 80.625 101.197 80.625 89.3916Z" fill="black"/>
<path fill-rule="evenodd" clip-rule="evenodd" d="M102 84.6416C100.74 84.6416 99.532 85.142 98.6412 86.0328C97.7504 86.9236 97.25 88.1318 97.25 89.3916C97.25 90.7033 96.1867 91.7666 94.875 91.7666C93.5633 91.7666 92.5 90.7033 92.5 89.3916C92.5 86.872 93.5009 84.4557 95.2825 82.6741C97.0641 80.8925 99.4804 79.8916 102 79.8916C103.312 79.8916 104.375 80.9549 104.375 82.2666C104.375 83.5783 103.312 84.6416 102 84.6416Z" fill="black"/>
<path d="M125.75 72.7666C127.062 72.7666 128.125 71.7033 128.125 70.3916C128.125 69.0799 127.062 68.0166 125.75 68.0166C124.438 68.0166 123.375 69.0799 123.375 70.3916C123.375 71.7033 124.438 72.7666 125.75 72.7666Z" fill="black"/>
<defs>
<clipPath id="clip0_123_57674">
<rect width="103" height="103" fill="white" transform="translate(51 37.3916)"/>
</clipPath>
</defs>
</svg>
