<svg width="87" height="86" viewBox="0 0 87 86" fill="none" xmlns="http://www.w3.org/2000/svg">
<g id="User">
<path id="Vector" d="M74.2804 78.8333C74.2804 64.9658 60.4846 53.75 43.4996 53.75C26.5146 53.75 12.7188 64.9658 12.7188 78.8333M43.4996 43C48.2514 43 52.8086 41.1123 56.1686 37.7523C59.5286 34.3923 61.4163 29.8351 61.4163 25.0833C61.4163 20.3315 59.5286 15.7744 56.1686 12.4143C52.8086 9.0543 48.2514 7.16666 43.4996 7.16666C38.7478 7.16666 34.1906 9.0543 30.8306 12.4143C27.4706 15.7744 25.5829 20.3315 25.5829 25.0833C25.5829 29.8351 27.4706 34.3923 30.8306 37.7523C34.1906 41.1123 38.7478 43 43.4996 43Z" stroke="black" stroke-width="1.5" stroke-linecap="round" stroke-linejoin="round"/>
</g>
</svg>
