<svg width="320" height="85" viewBox="0 0 320 85" fill="none" xmlns="http://www.w3.org/2000/svg">
<path d="M318.921 6.03527C319.194 6.07874 319.45 5.89292 319.494 5.62022C319.537 5.34752 319.351 5.09121 319.079 5.04774L318.921 6.03527ZM0.904468 80.2655C38.6467 87.612 65.4979 84.7339 87.5323 76.7319C109.546 68.7374 126.722 55.635 145.081 42.6327C163.453 29.6221 183.045 16.6818 209.966 8.88443C236.886 1.08743 271.171 -1.57689 318.921 6.03527L319.079 5.04774C271.216 -2.5823 236.778 0.0774963 209.688 7.92391C182.599 15.7699 162.894 28.7923 144.503 41.8166C126.101 54.8493 109.049 67.854 87.191 75.792C65.354 83.7223 38.6902 86.6017 1.09553 79.2839L0.904468 80.2655Z" fill="white"/>
</svg>
