<svg width="74" height="65" viewBox="0 0 74 65" fill="none" xmlns="http://www.w3.org/2000/svg">
<path d="M73.2242 2.24617C72.9326 1.73792 72.5121 1.31559 72.0052 1.02182C71.4982 0.728047 70.9227 0.573233 70.3368 0.573007L53.768 0.559974L53.7433 0.556641L41.5982 0.559974C41.0636 0.56053 40.5369 0.689435 40.0625 0.935848C39.5881 1.18226 39.1798 1.53898 38.8719 1.97601L37.01 4.62901L35.1284 1.96951C34.8211 1.53389 34.4137 1.17848 33.9404 0.933187C33.4671 0.687892 32.9418 0.559896 32.4087 0.559974L20.2554 0.556641H20.2538L20.2489 0.557241L20.244 0.556641H20.2261L3.64895 0.647774C3.06334 0.6507 2.48884 0.807873 1.98329 1.10346C1.47775 1.39906 1.05901 1.82263 0.769241 2.33154C0.479475 2.84045 0.328912 3.41672 0.332712 4.00233C0.336512 4.58793 0.494541 5.1622 0.790887 5.66731L34.1893 62.6857C34.4836 63.1871 34.9038 63.6028 35.4083 63.8917C35.9127 64.1807 36.4839 64.3327 37.0653 64.3328H37.0686C37.6509 64.3324 38.2229 64.1795 38.7277 63.8894C39.2325 63.5992 39.6526 63.182 39.9462 62.6792L73.2144 5.58617C73.509 5.07927 73.665 4.50377 73.6667 3.91748C73.6684 3.3312 73.5158 2.75479 73.2242 2.24617ZM30.6818 7.22671L34.2985 12.3374C34.606 12.7732 35.0137 13.1287 35.4873 13.374C35.9609 13.6193 36.4865 13.7472 37.0199 13.7469H37.0247C37.5587 13.7456 38.0846 13.6164 38.5584 13.37C39.0322 13.1236 39.44 12.7673 39.7477 12.3309L43.3317 7.22671L47.8739 7.22337L37.0606 25.4025L26.1441 7.22347L30.6818 7.22671ZM37.0572 54.3914L9.46439 7.28207L18.3641 7.23324L34.2089 33.6266C34.5052 34.1199 34.9242 34.5281 35.425 34.8116C35.9258 35.095 36.4914 35.2442 37.0669 35.2444H37.0734L37.0767 35.244L37.0801 35.2444H37.0867C37.6635 35.2431 38.2301 35.0921 38.731 34.8062C39.232 34.5204 39.6502 34.1094 39.9448 33.6135L55.6381 7.22687L64.5364 7.23664L37.0572 54.3914Z" fill="white"/>
</svg>