<svg width="16" height="17" viewBox="0 0 16 17" fill="none" xmlns="http://www.w3.org/2000/svg">
<g clip-path="url(#clip0_1055_6300)">
<path d="M7.99992 15.1673C11.6818 15.1673 14.6666 12.1825 14.6666 8.50065C14.6666 4.81875 11.6818 1.83398 7.99992 1.83398C4.31802 1.83398 1.33325 4.81875 1.33325 8.50065C1.33325 12.1825 4.31802 15.1673 7.99992 15.1673Z" stroke="white" stroke-width="2" stroke-linecap="round" stroke-linejoin="round"/>
<path d="M7.99992 15.1673C11.6818 15.1673 14.6666 12.1825 14.6666 8.50065C14.6666 4.81875 11.6818 1.83398 7.99992 1.83398C4.31802 1.83398 1.33325 4.81875 1.33325 8.50065C1.33325 12.1825 4.31802 15.1673 7.99992 15.1673Z" stroke="white" stroke-width="2" stroke-linecap="round" stroke-linejoin="round"/>
<path d="M1.33325 8.5H14.6666" stroke="white" stroke-width="2" stroke-linecap="round" stroke-linejoin="round"/>
<path d="M10.6666 8.50065C10.6151 6.02867 9.66744 3.65955 7.99992 1.83398C6.3324 3.65955 5.38475 6.02867 5.33325 8.50065C5.38475 10.9726 6.3324 13.3417 7.99992 15.1673C9.66744 13.3417 10.6151 10.9726 10.6666 8.50065Z" stroke="white" stroke-width="2" stroke-linecap="round" stroke-linejoin="round"/>
</g>
<defs>
<clipPath id="clip0_1055_6300">
<rect width="16" height="16" fill="white" transform="translate(0 0.5)"/>
</clipPath>
</defs>
</svg>
