<svg width="143" height="143" viewBox="0 0 143 143" fill="none" xmlns="http://www.w3.org/2000/svg">
<g id="CheckCircle">
<g id="Vector">
<path d="M50.0093 70.5036C49.1778 69.709 48.072 69.2656 46.9219 69.2656C46.9209 69.2656 46.8205 69.2668 46.8205 69.2668C45.6356 69.2937 44.51 69.7901 43.6911 70.647C42.8965 71.4785 42.4531 72.5843 42.4531 73.7344L42.4543 73.8357C42.4812 75.0206 42.9776 76.1463 43.8345 76.9651L60.2013 92.6057C61.9275 94.2554 64.6457 94.2566 66.3733 92.6084L99.1617 61.3282C100.019 60.5101 100.518 59.3838 100.546 58.1989C100.547 58.1273 100.547 58.0558 100.546 57.9842C100.518 56.8736 100.078 55.8129 99.3115 55.0091C98.4682 54.1252 97.2998 53.625 96.0781 53.625L95.952 53.6268C94.8472 53.658 93.7932 54.0975 92.9935 54.8604L63.2913 83.1964L50.0093 70.5036Z" fill="#12B347"/>
<path fill-rule="evenodd" clip-rule="evenodd" d="M71.5 13.4062C71.5 13.4062 83.3162 13.4062 94.1141 17.9734C94.1141 17.9734 104.54 22.3833 112.578 30.4215C112.578 30.4215 120.617 38.4598 125.027 48.8859C125.027 48.8859 129.594 59.6838 129.594 71.5C129.594 71.5 129.594 83.3161 125.027 94.1141C125.027 94.1141 120.617 104.54 112.578 112.578C112.578 112.578 104.54 120.617 94.1141 125.027C94.1141 125.027 83.3161 129.594 71.5 129.594C71.5 129.594 59.6838 129.594 48.8859 125.027C48.8859 125.027 38.4598 120.617 30.4215 112.578C30.4215 112.578 22.3833 104.54 17.9734 94.1141C17.9734 94.1141 13.4062 83.3162 13.4062 71.5C13.4062 71.5 13.4062 59.6838 17.9734 48.8859C17.9734 48.8859 22.3833 38.4597 30.4215 30.4215C30.4215 30.4215 38.4598 22.3833 48.8859 17.9734C48.8859 17.9734 59.6838 13.4062 71.5 13.4062ZM71.5 22.3437C71.5 22.3437 61.4962 22.3437 52.3675 26.2049C52.3675 26.2049 43.5469 29.9357 36.7413 36.7413C36.7413 36.7413 29.9357 43.5469 26.2049 52.3675C26.2049 52.3675 22.3438 61.4962 22.3438 71.5C22.3438 71.5 22.3438 81.5038 26.2049 90.6324C26.2049 90.6324 29.9357 99.4531 36.7413 106.259C36.7413 106.259 43.5469 113.064 52.3675 116.795C52.3675 116.795 61.4963 120.656 71.5 120.656C71.5 120.656 81.5037 120.656 90.6325 116.795C90.6325 116.795 99.4531 113.064 106.259 106.259C106.259 106.259 113.064 99.4531 116.795 90.6325C116.795 90.6325 120.656 81.5037 120.656 71.5C120.656 71.5 120.656 61.4963 116.795 52.3675C116.795 52.3675 113.064 43.5469 106.259 36.7413C106.259 36.7413 99.4531 29.9357 90.6325 26.2049C90.6325 26.2049 81.5038 22.3438 71.5 22.3437Z" fill="#12B347"/>
</g>
</g>
</svg>
