<svg width="143" height="143" viewBox="0 0 143 143" fill="none" xmlns="http://www.w3.org/2000/svg">
<path d="M120.656 26.8125H22.3438C19.8757 26.8125 17.875 28.8132 17.875 31.2812C17.875 33.7493 19.8757 35.75 22.3438 35.75H120.656C123.124 35.75 125.125 33.7493 125.125 31.2812C125.125 28.8132 123.124 26.8125 120.656 26.8125Z" fill="#FF7D80"/>
<path d="M53.625 58.0938V93.8438C53.625 96.3118 55.6257 98.3125 58.0938 98.3125C60.5618 98.3125 62.5625 96.3118 62.5625 93.8438V58.0938C62.5625 55.6257 60.5618 53.625 58.0938 53.625C55.6257 53.625 53.625 55.6257 53.625 58.0938Z" fill="#FF7D80"/>
<path d="M80.4375 58.0938V93.8438C80.4375 96.3118 82.4382 98.3125 84.9062 98.3125C87.3743 98.3125 89.375 96.3118 89.375 93.8438V58.0938C89.375 55.6257 87.3743 53.625 84.9062 53.625C82.4382 53.625 80.4375 55.6257 80.4375 58.0938Z" fill="#FF7D80"/>
<path d="M35.75 116.188V31.2812C35.75 28.8132 33.7493 26.8125 31.2812 26.8125C28.8132 26.8125 26.8125 28.8132 26.8125 31.2812V116.188C26.8125 119.89 29.4302 122.507 29.4302 122.507C32.048 125.125 35.75 125.125 35.75 125.125H107.25C110.952 125.125 113.57 122.507 113.57 122.507C116.188 119.89 116.188 116.188 116.188 116.188V31.2812C116.188 28.8132 114.187 26.8125 111.719 26.8125C109.251 26.8125 107.25 28.8132 107.25 31.2812V116.188H35.75Z" fill="#FF7D80"/>
<path d="M48.6141 12.8641C44.6875 16.7907 44.6875 22.3438 44.6875 22.3438V31.2812C44.6875 33.7493 46.6882 35.75 49.1562 35.75C51.6243 35.75 53.625 33.7493 53.625 31.2812V22.3438C53.625 20.4927 54.9339 19.1839 54.9339 19.1839C56.2427 17.875 58.0938 17.875 58.0938 17.875H84.9062C86.7573 17.875 88.0661 19.1839 88.0661 19.1839C89.375 20.4927 89.375 22.3438 89.375 22.3438V31.2812C89.375 33.7493 91.3757 35.75 93.8438 35.75C96.3118 35.75 98.3125 33.7493 98.3125 31.2812V22.3438C98.3125 16.7907 94.3859 12.8641 94.3859 12.8641C90.4593 8.9375 84.9062 8.9375 84.9062 8.9375H58.0938C52.5407 8.9375 48.6141 12.8641 48.6141 12.8641Z" fill="#FF7D80"/>
</svg>
